<?xml version="1.0" encoding="utf-8"?>
<!-- Generator: Adobe Illustrator 16.0.4, SVG Export Plug-In . SVG Version: 6.00 Build 0)  -->
<!DOCTYPE svg PUBLIC "-//W3C//DTD SVG 1.1//EN" "http://www.w3.org/Graphics/SVG/1.1/DTD/svg11.dtd">
<svg version="1.1" id="Layer_1" xmlns="http://www.w3.org/2000/svg" xmlns:xlink="http://www.w3.org/1999/xlink" x="0px" y="0px"
	 width="800px" height="800px" viewBox="0 0 800 800" enable-background="new 0 0 800 800" xml:space="preserve">
<g id="Layer1" transform="matrix(1.02965,0,0,1.02965,-3.13799,-5.45199)">
	<g id="path302" transform="matrix(0.240558,0,0,-0.319316,-156.232,186.496)">
		<path fill="#FFFFFF" d="M3630.819,97.071H1698.14c-104.108,0-188.629-84.491-188.629-188.598v-864.229
			c0-104.121,84.521-188.541,188.629-188.541h1932.68c104.229,0,188.649,84.42,188.649,188.541v864.229
			C3819.469,12.58,3735.048,97.071,3630.819,97.071"/>
	</g>
	<g id="path304" transform="matrix(0.355155,0,0,-0.355155,-318.233,200.892)">
		<path fill="#CD2026" d="M2964.452-987.744c69.369,0,125.789,56.652,125.789,125.789V2.197c0,33.646-13.029,65.176-36.836,88.837
			c-23.773,23.81-55.314,36.846-88.952,36.846h-540.231l310.667-518.556l28.497-3.497l16.533-23.809v-22.367l20.152-3.66
			l17.828-24.838l0.115-21.337l20.037-3.544c0,0,20.154-21.321,20.154-22.468v-48.572c0,0,43.732-40.194,83.01-55.549
			c27.199-10.655,30.703-54.393,46.21-78.096c21.332-33.168,49.674-47.351,43.847-66.322
			c-14.21-50.897-66.247-136.105-114.896-140.912c0,0-120.763-0.15-191.809-0.15l0.112-81.947H2964.452"/>
	</g>
	<g id="path306" transform="matrix(0.355155,0,0,-0.355155,-318.233,200.892)">
		<path fill="#CD2026" d="M2240.068,127.956H1031.746c-33.646,0-65.178-13.143-88.869-36.845
			c-23.913-23.769-36.918-55.315-36.918-88.946v-864.152c0-33.646,13.005-65.294,36.918-88.954
			c23.691-23.81,55.223-36.832,88.869-36.832h784.856c-19.81,32.826-41.828,70.133-48.534,81.472h-93.637
			c-0.152,232.01,79.125,361.073,172.801,386.055c12.875,2.489,6.895,66.252-9.641,85.224c0,0-44.99-1.174-54.513,1.295
			c-11.846,3.512-3.619,15.238-3.619,15.238l43.847,94.747l-5.867,26.134l-162.361-0.122c-2.362,0,133.867,93.573,133.867,93.573
			c6.933,246.175,259.087,265.298,411.732,163.66c90.247-60.388,97.409-178.795,90.402-261.684
			c-1.183-4.804-23.81-1.291-23.81-1.291s-15.238-89.912,24.953-89.912h177.484c72.344,2.441,142.209-45.982,142.209-45.982
			l17.828,61.562L2240.068,127.956"/>
	</g>
	<g id="path312" transform="matrix(0.355155,0,0,-0.355155,-318.233,200.892)">
		<path fill="#FFFFFF" d="M1165.796-637.03c-47.604-0.238-86.297-38.824-86.176-86.519c0-47.738,38.571-86.399,86.277-86.399
			c47.727,0.107,86.401,38.781,86.401,86.623C1252.299-675.853,1213.384-637.03,1165.796-637.03"/>
	</g>
</g>
<g transform="matrix(2.40786,0,0,2.00268,-51.2076,-114.029)">
	<g id="Layer2">
		<g>
			<path fill="#FFFFFF" d="M32.414,379.152l-3.154-21.12l-0.183-1.417h-0.274v22.537h-4.571v-33.6h6.034l2.926,15.36l0.229,1.783
				h0.091l0.229-1.783l2.926-15.36H42.7v33.6h-4.571v-22.537h-0.274l-0.183,1.417l-3.154,21.12H32.414z"/>
			<path fill="#FFFFFF" d="M45.9,379.152l5.074-33.6h6.034l5.074,33.6h-4.8l-0.914-6.858h-4.754l-0.914,6.858H45.9z M54.266,356.477
				l-0.137-0.868h-0.274l-0.137,0.868L52.3,367.083h3.383L54.266,356.477z"/>
			<path fill="#FFFFFF" d="M63.729,374.626c0.96,0.138,1.691-0.091,2.24-0.823c0.274-0.32,0.411-0.868,0.411-1.646v-26.606h4.937
				v27.383c0,1.829-0.457,3.52-1.6,4.754c-1.143,1.234-3.063,1.966-5.988,1.783V374.626z"/>
			<path fill="#FFFFFF" d="M88.506,372.249c-0.046,1.371-0.32,2.605-0.823,3.657c-0.411,0.914-1.051,1.783-1.966,2.469
				c-0.914,0.731-2.149,1.143-3.794,1.143c-1.646,0-2.926-0.412-3.84-1.143c-0.914-0.686-1.509-1.555-1.92-2.469
				c-0.503-1.051-0.777-2.286-0.823-3.657v-19.794c0.046-1.326,0.32-2.56,0.823-3.612c0.411-0.914,1.006-1.829,1.92-2.514
				c0.914-0.686,2.194-1.143,3.84-1.143c1.646,0,2.88,0.457,3.794,1.143s1.554,1.6,1.966,2.514c0.503,1.052,0.777,2.286,0.823,3.612
				V372.249z M83.569,352.455c0-0.914-0.183-1.555-0.64-2.103c-0.229-0.229-0.594-0.366-1.006-0.366c-0.869,0-1.28,0.64-1.463,1.234
				c-0.137,0.366-0.183,0.777-0.183,1.235v19.794c0,0.96,0.229,1.6,0.686,2.103c0.229,0.229,0.549,0.366,0.96,0.366
				c0.869,0,1.28-0.549,1.463-1.234c0.137-0.32,0.183-0.731,0.183-1.234V352.455z"/>
			<path fill="#FFFFFF" d="M101.58,379.152l-2.56-14.171h-1.326v14.171h-4.937v-33.6h4.937c5.897,0,8.411,3.337,8.411,9.692
				c0,3.337-0.869,6.354-2.743,7.634l3.154,16.275H101.58z M97.694,360.409c0.686,0,1.6-0.092,2.331-0.731
				c0.731-0.64,1.326-1.874,1.326-4.252c0-2.377-0.594-3.657-1.326-4.297c-0.731-0.64-1.646-0.686-2.331-0.686V360.409z"/>
			<path fill="#FFFFFF" d="M118.129,345.552h4.937v29.029h6.537v4.572h-11.474V345.552z"/>
			<path fill="#FFFFFF" d="M132.529,345.552h11.291v5.075h-6.354v8.823h4.571v5.394h-4.571v9.234h6.354v5.075h-11.291V345.552z"/>
			<path fill="#FFFFFF" d="M146.197,379.152l5.074-33.6h6.034l5.075,33.6h-4.8l-0.915-6.858h-4.754l-0.914,6.858H146.197z
				 M154.563,356.477l-0.137-0.868h-0.274l-0.137,0.868l-1.417,10.606h3.383L154.563,356.477z"/>
			<path fill="#FFFFFF" d="M173.489,357.62v-5.165c0-0.914-0.183-1.555-0.64-2.103c-0.229-0.229-0.595-0.366-1.006-0.366
				c-0.869,0-1.28,0.64-1.463,1.234c-0.137,0.366-0.183,0.777-0.183,1.235v20.205c0,0.96,0.229,1.6,0.686,2.103
				c0.228,0.228,0.548,0.366,0.96,0.366c0.868,0,1.28-0.549,1.463-1.235c0.137-0.32,0.183-0.731,0.183-1.234v-6.08h-1.966v-4.16
				h6.903v16.731H175.5l-0.594-1.6c-0.915,1.143-2.24,1.966-3.84,1.966c-1.6,0-2.697-0.412-3.52-1.143
				c-0.823-0.686-1.372-1.555-1.737-2.469c-0.411-1.051-0.594-2.286-0.548-3.657v-19.794c0.046-1.326,0.32-2.56,0.823-3.612
				c0.411-0.914,1.005-1.829,1.92-2.514c0.914-0.686,2.194-1.143,3.84-1.143s2.88,0.457,3.794,1.143
				c0.915,0.686,1.555,1.6,1.966,2.514c0.503,1.052,0.777,2.286,0.823,3.612v5.165H173.489z"/>
			<path fill="#FFFFFF" d="M196.072,345.552v26.698c-0.046,1.371-0.32,2.605-0.823,3.657c-0.411,0.914-1.051,1.783-1.966,2.469
				c-0.914,0.731-2.148,1.143-3.794,1.143s-2.926-0.412-3.84-1.143c-0.914-0.686-1.509-1.555-1.92-2.469
				c-0.503-1.051-0.777-2.286-0.823-3.657v-26.698h4.937v26.698c0,0.96,0.229,1.6,0.686,2.103c0.228,0.229,0.549,0.366,0.96,0.366
				c0.869,0,1.28-0.549,1.463-1.234c0.137-0.32,0.183-0.731,0.183-1.234v-26.698H196.072z"/>
			<path fill="#FFFFFF" d="M200.597,345.552h11.291v5.075h-6.354v8.823h4.572v5.394h-4.572v9.234h6.354v5.075h-11.291V345.552z"/>
			<path fill="#FFFFFF" d="M223.5,379.152v-33.6h4.343c2.926,0,5.212,0.549,6.72,1.966c1.509,1.417,2.286,3.611,2.286,6.948
				c0,1.6-0.137,2.789-0.64,3.886s-1.28,2.011-2.423,3.063c1.234,0.686,2.149,1.966,2.88,4.115c0.366,1.051,0.549,2.423,0.549,4.114
				c0,2.514-0.457,4.754-1.6,6.491c-1.143,1.737-3.109,2.88-6.035,3.017H223.5z M228.437,359.403c0.412,0,1.372,0.046,2.195-0.503
				s1.463-1.646,1.463-3.977c0-2.331-0.64-3.429-1.463-3.977c-0.823-0.549-1.783-0.503-2.195-0.503V359.403z M228.437,374.26
				c0.412,0,1.372,0.092,2.195-0.503s1.463-1.92,1.463-4.663c0-2.743-0.64-4.069-1.463-4.663c-0.823-0.594-1.783-0.503-2.195-0.503
				V374.26z"/>
			<path fill="#FFFFFF" d="M239.683,379.152l5.075-33.6h6.034l5.075,33.6h-4.8l-0.915-6.858h-4.754l-0.914,6.858H239.683z
				 M248.049,356.477l-0.137-0.868h-0.274l-0.137,0.868l-1.417,10.606h3.382L248.049,356.477z"/>
			<path fill="#FFFFFF" d="M266.792,354.558c0-1.097-0.046-2.331-0.366-3.292c-0.32-0.914-0.823-1.554-1.6-1.554
				c-1.28,0.045-1.692,1.371-1.692,3.337c0,1.143,0.503,2.331,1.235,3.611c0.731,1.28,1.691,2.606,2.651,4.023
				c1.143,1.692,2.286,3.428,3.155,5.12c0.868,1.692,1.462,3.428,1.462,5.257c0,2.24-0.365,4.343-1.417,5.897
				c-1.051,1.554-2.743,2.56-5.44,2.56c-3.154,0-4.937-1.189-5.943-3.017c-1.006-1.829-1.234-4.251-1.234-6.766l4.846-0.457
				c0,1.417,0.045,2.834,0.411,3.885c0.32,1.097,0.869,1.829,1.92,1.829c1.463,0,2.012-1.554,2.012-3.703
				c0-1.097-0.549-2.377-1.28-3.703c-0.412-0.64-0.823-1.326-1.28-2.011c-0.96-1.371-2.012-2.926-3.109-4.617
				c-1.097-1.692-1.92-3.429-2.423-5.212c-0.274-0.868-0.411-1.783-0.411-2.697c0-1.829,0.411-3.794,1.462-5.303
				c1.052-1.463,2.652-2.514,4.983-2.56c2.972-0.045,4.709,1.189,5.669,2.972c0.96,1.829,1.234,4.069,1.234,5.943L266.792,354.558z"
				/>
			<path fill="#FFFFFF" d="M275.203,345.552h11.292v5.075h-6.354v8.823h4.571v5.394h-4.571v9.234h6.354v5.075h-11.292V345.552z"/>
			<path fill="#FFFFFF" d="M290.151,379.152v-33.6h4.343c2.926,0,5.212,0.549,6.72,1.966c1.509,1.417,2.286,3.611,2.286,6.948
				c0,1.6-0.137,2.789-0.64,3.886s-1.28,2.011-2.423,3.063c1.235,0.686,2.149,1.966,2.88,4.115c0.366,1.051,0.549,2.423,0.549,4.114
				c0,2.514-0.457,4.754-1.6,6.491c-1.143,1.737-3.109,2.88-6.035,3.017H290.151z M295.089,359.403c0.412,0,1.372,0.046,2.195-0.503
				s1.463-1.646,1.463-3.977c0-2.331-0.64-3.429-1.463-3.977c-0.823-0.549-1.783-0.503-2.195-0.503V359.403z M295.089,374.26
				c0.412,0,1.372,0.092,2.195-0.503s1.463-1.92,1.463-4.663c0-2.743-0.64-4.069-1.463-4.663c-0.823-0.594-1.783-0.503-2.195-0.503
				V374.26z"/>
			<path fill="#FFFFFF" d="M306.334,379.152l5.075-33.6h6.034l5.075,33.6h-4.8l-0.915-6.858h-4.754l-0.914,6.858H306.334z
				 M314.7,356.477l-0.137-0.868h-0.274l-0.137,0.868l-1.417,10.606h3.383L314.7,356.477z"/>
			<path fill="#FFFFFF" d="M325.717,345.552h4.937v29.029h6.537v4.572h-11.474V345.552z"/>
			<path fill="#FFFFFF" d="M340.117,345.552h4.937v29.029h6.537v4.572h-11.474V345.552z"/>
		</g>
	</g>
</g>
</svg>
